HIERARCHY
ROOT butt
{
	OFFSET 0.000000 0.000000 0.000000
	CHANNELS 6 Xposition Yposition Zposition Xrotation Yrotation Zrotation
	JOINT lhip
	{
		OFFSET 0.583813 0.718669 -0.323938
		CHANNELS 6 Xposition Yposition Zposition Xrotation Yrotation Zrotation
		JOINT lknee
		{
			OFFSET 0.553245 0.216339 -1.020714
			CHANNELS 6 Xposition Yposition Zposition Xrotation Yrotation Zrotation
			JOINT lankle
			{
				OFFSET -0.339279 0.080945 -1.465530
				CHANNELS 6 Xposition Yposition Zposition Xrotation Yrotation Zrotation
				End Site
				{
					OFFSET 0.537810 -0.043777 -0.195635
				}
			}
		}
	}
	JOINT rhip
	{
		OFFSET 0.339136 -0.940503 -0.149914
		CHANNELS 6 Xposition Yposition Zposition Xrotation Yrotation Zrotation
		JOINT rknee
		{
			OFFSET 0.601234 -0.223249 -1.073499
			CHANNELS 6 Xposition Yposition Zposition Xrotation Yrotation Zrotation
			JOINT rankle
			{
				OFFSET -0.245263 -0.041399 -1.532960
				CHANNELS 6 Xposition Yposition Zposition Xrotation Yrotation Zrotation
				End Site
				{
					OFFSET 0.653910 0.024899 -0.232875
				}
			}
		}
	}
	JOINT abdomen
	{
		OFFSET 0.907647 0.026340 0.317664
		CHANNELS 6 Xposition Yposition Zposition Xrotation Yrotation Zrotation
		JOINT neck
		{
			OFFSET 1.496963 0.039292 -0.038456
			CHANNELS 6 Xposition Yposition Zposition Xrotation Yrotation Zrotation
			End Site
			{
				OFFSET 2.739308 -0.092250 1.009232
			}
		}
		JOINT lshldr
		{
			OFFSET 1.132326 0.559775 -0.444207
			CHANNELS 6 Xposition Yposition Zposition Xrotation Yrotation Zrotation
			JOINT lelbow
			{
				OFFSET -0.149559 0.286290 -0.912030
				CHANNELS 6 Xposition Yposition Zposition Xrotation Yrotation Zrotation
				JOINT lwrist
				{
					OFFSET 0.485181 -0.390159 0.265472
					CHANNELS 6 Xposition Yposition Zposition Xrotation Yrotation Zrotation
					End Site
					{
						OFFSET 0.527290 -0.521758 -0.124363
					}
				}
			}
		}
		JOINT rshldr
		{
			OFFSET 1.100885 -0.503887 -0.296241
			CHANNELS 6 Xposition Yposition Zposition Xrotation Yrotation Zrotation
			JOINT relbow
			{
				OFFSET -0.198937 -0.642069 -0.689888
				CHANNELS 6 Xposition Yposition Zposition Xrotation Yrotation Zrotation
				JOINT rwrist
				{
					OFFSET 0.636091 0.394674 0.001069
					CHANNELS 6 Xposition Yposition Zposition Xrotation Yrotation Zrotation
					End Site
					{
						OFFSET 0.557086 0.133476 -0.377524
					}
				}
			}
		}
	}
}
MOTION
Frames: 6
Frame Time: 0.033333
-0.147910 3.207110 0.044800 12.037894 4.426751 3.392160 0.583813 0.718669 -0.323938 -3.106954 -20.425933 1.717621 0.553245 0.216339 -1.020714 -17.695244 29.231400 9.282592 -0.339279 0.080945 -1.465530 -10.023276 -0.968486 2.099090 0.339136 -0.940503 -0.149914 -14.003008 -24.337550 -57.951717 0.601234 -0.223249 -1.073499 -13.441579 10.473934 63.043821 -0.245263 -0.041399 -1.532960 -5.454044 0.384925 1.344504 0.907647 0.026340 0.317664 2.316748 18.624311 5.141007 1.496964 0.039292 -0.038456 -23.295064 -17.879180 -31.057686 1.132326 0.559775 -0.444207 -17.548113 -24.843567 3.160878 -0.149559 0.286290 -0.912030 52.430287 12.864929 -58.084721 0.485181 -0.390159 0.265472 9.336202 -2.037486 -28.569215 1.100885 -0.503887 -0.296241 10.351900 -2.984389 -2.180168 -0.198937 -0.642069 -0.689888 -18.022550 38.158932 9.988557 0.636091 0.394674 0.001069 -25.929732 -18.291706 32.881316 
-0.154100 3.267960 0.036180 12.204403 4.153523 3.301893 0.583813 0.718669 -0.323938 -3.495079 -17.459034 0.997135 0.553245 0.216339 -1.020714 -15.942292 27.557138 14.573672 -0.339279 0.080945 -1.465530 -7.184414 -2.067757 1.333081 0.339136 -0.940503 -0.149914 -15.104904 -24.496181 -58.341297 0.601234 -0.223249 -1.073499 -14.839412 10.981379 63.958636 -0.245263 -0.041399 -1.532960 -5.002088 -0.686517 1.163997 0.907647 0.026340 0.317664 3.221755 18.335477 7.727730 1.496964 0.039293 -0.038456 -25.011207 -16.458765 -32.494396 1.132326 0.559775 -0.444207 -17.573298 -21.942065 4.067463 -0.149559 0.286290 -0.912030 51.443711 13.416262 -56.202669 0.485181 -0.390159 0.265472 9.147206 -1.959343 -28.572334 1.100885 -0.503886 -0.296241 6.984299 -1.920227 -1.914043 -0.198937 -0.642069 -0.689888 -17.832937 38.957545 9.076661 0.636091 0.394674 0.001069 -24.408871 -17.796037 33.486167 
-0.159060 3.319000 0.027320 11.924172 3.447586 3.687518 0.583813 0.718669 -0.323938 -4.276786 -15.268241 -1.691144 0.553245 0.216339 -1.020714 -14.439471 26.181346 19.680183 -0.339279 0.080945 -1.465530 -5.730255 -2.208391 1.041848 0.339136 -0.940503 -0.149914 -15.960209 -24.120451 -58.508869 0.601234 -0.223249 -1.073499 -16.094683 11.435961 63.830317 -0.245263 -0.041399 -1.532960 -4.640874 -1.829685 1.013826 0.907647 0.026340 0.317664 4.373306 18.215664 9.038692 1.496964 0.039292 -0.038456 -26.256693 -14.839897 -34.341389 1.132326 0.559775 -0.444207 -16.370200 -18.472421 5.673891 -0.149559 0.286290 -0.912030 49.974978 13.884393 -54.091570 0.485182 -0.390159 0.265472 9.239536 -2.004924 -28.892072 1.100885 -0.503887 -0.296241 3.933868 -1.164224 -2.335069 -0.198937 -0.642069 -0.689888 -17.386311 39.569355 8.078015 0.636091 0.394674 0.001069 -23.084496 -17.319565 33.198934 
-0.169470 3.357560 0.020650 11.682394 3.059855 4.324090 0.583813 0.718668 -0.323938 -5.641141 -14.522065 -4.829179 0.553245 0.216339 -1.020714 -13.512225 24.946863 21.325241 -0.339279 0.080945 -1.465530 -7.055287 -2.736745 1.220717 0.339136 -0.940504 -0.149914 -17.092101 -23.777328 -58.820865 0.601234 -0.223249 -1.073499 -16.949485 11.755199 62.858470 -0.245263 -0.041399 -1.532960 -4.523518 -2.911957 0.930975 0.907647 0.026339 0.317664 4.865215 17.618767 9.468360 1.496963 0.039292 -0.038456 -27.002595 -13.033270 -36.528497 1.132326 0.559775 -0.444207 -14.207203 -14.653850 7.691539 -0.149559 0.286290 -0.912030 48.127019 14.289931 -51.573078 0.485181 -0.390159 0.265472 9.343758 -2.076387 -29.792285 1.100885 -0.503887 -0.296241 1.301001 -1.013979 -3.431521 -0.198937 -0.642069 -0.689888 -16.946488 40.234616 7.221030 0.636091 0.394674 0.001069 -21.558167 -16.828970 32.758752 
-0.186750 3.390300 0.015440 11.650212 2.806116 4.873267 0.583813 0.718669 -0.323938 -7.126425 -14.362703 -6.248308 0.553245 0.216339 -1.020714 -13.119497 24.460909 22.242151 -0.339280 0.080945 -1.465530 -6.229659 -3.603157 0.958245 0.339136 -0.940503 -0.149914 -18.426266 -23.362676 -59.100527 0.601234 -0.223249 -1.073499 -17.343782 11.900128 62.032782 -0.245263 -0.041399 -1.532960 -3.867999 -3.483314 0.781364 0.907647 0.026340 0.317664 4.446925 17.149738 9.936676 1.496963 0.039292 -0.038456 -26.903700 -11.836959 -37.184967 1.132326 0.559775 -0.444207 -11.874294 -11.187879 9.565331 -0.149559 0.286290 -0.912030 45.455541 14.443478 -48.622737 0.485181 -0.390159 0.265472 9.440279 -2.159040 -31.374385 1.100885 -0.503887 -0.296241 -1.094142 -1.170236 -5.082350 -0.198937 -0.642069 -0.689888 -16.215262 40.767606 6.235962 0.636092 0.394674 0.001069 -19.700366 -16.636570 32.406813 
-0.209610 3.420710 0.011070 11.554988 2.518632 5.248302 0.583813 0.718669 -0.323938 -8.339023 -13.980481 -6.579242 0.553245 0.216339 -1.020714 -12.614478 23.618914 22.517786 -0.339279 0.080945 -1.465530 -5.154197 -4.546374 0.684564 0.339136 -0.940503 -0.149914 -19.593152 -22.743560 -59.469528 0.601234 -0.223249 -1.073499 -17.168101 11.841653 61.751187 -0.245263 -0.041399 -1.532960 -2.428509 -3.150864 0.525226 0.907647 0.026340 0.317664 3.570845 17.001169 10.917620 1.496963 0.039292 -0.038456 -26.381889 -10.790381 -37.302405 1.132326 0.559775 -0.444207 -10.268682 -9.313862 10.888865 -0.149559 0.286289 -0.912030 41.080583 13.952028 -45.176343 0.485181 -0.390159 0.265472 8.916148 -1.986599 -34.402099 1.100885 -0.503887 -0.296241 -3.158345 -1.586515 -7.061016 -0.198937 -0.642069 -0.689888 -14.695693 40.462140 4.694464 0.636091 0.394674 0.001069 -18.966452 -17.186148 31.876616 
